<svg id="regular" enable-background="new 0 0 24 24" height="512" viewBox="0 0 24 24" width="512" xmlns="http://www.w3.org/2000/svg"><path d="m19.117 22.371c.135-.195.169-.442.093-.667l-1.092-3.215c-.141-.418-.622-.632-1.031-.437-.568.269-2.078.535-2.542.056-.709-.728-.279-3.61-.36-7.474h3.778c.414 0 .75-.336.75-.75v-3.41c0-.414-.336-.75-.75-.75h-3.782v-4.99c0-.414-.336-.75-.75-.75h-3.32c-.771 0-.92.759-1.051 1.429-.258 1.31-.737 3.75-3.813 4.856-.299.108-.497.39-.497.707v2.909c0 .414.336.75.75.75h1.531v6.612c0 7.746 10.169 7.902 12.086 5.124zm-10.586-5.124v-7.362c0-.414-.336-.75-.75-.75h-1.531v-1.649c2.82-1.214 3.777-3.301 4.324-6.001h2.106v4.99c0 .414.336.75.75.75h3.782v1.91h-3.801c-.427 0-.765.356-.749.779.19 4.964-.552 7.846.808 9.241.847.871 2.288.819 3.469.527l.691 2.035c-3.023 1.825-9.099.59-9.099-4.47z"/></svg>